{"title":"Alex (2017) S01 E02 - 1080p x264 - SWE (ENG SUBS) [BRSHNKV]","magnet":"magnet:?xt=urn:btih:360a5fcbd544bc69c0e4429c3f8f3787a6d23020&dn=Alex+%282017%29+S01+E02+-+1080p+x264+-+SWE+%28ENG+SUBS%29+%5BBRSHNKV%5D&tr=udp%3A%2F%2Ftracker.leechers-paradise.org%3A6969&tr=udp%3A%2F%2Fzer0day.ch%3A1337&tr=udp%3A%2F%2Fopen.demonii.com%3A1337&tr=udp%3A%2F%2Ftracker.coppersurfer.tk%3A6969&tr=udp%3A%2F%2Fexodus.desync.com%3A6969","uploader":"BRSHNKV","categoryP":"video","categoryS":"hd___tv_shows","size":"611648051","seeders":"0","leechers":"0","description":"Format                                   : MPEG-4\r\nFormat profile                           : Base Media / Version 2\r\nCodec ID                                 : mp42\r\nFile size                                : 583 MiB\r\nDuration                                 : 42mn 37s\r\nOverall bit rate mode                    : Variable\r\nOverall bit rate                         : 1 913 Kbps\r\nMovie name                               : Alex S01 E02 - x264 [BRSHNKV]\r\nEncoded date                             : UTC 2018-01-25 21:16:10\r\nTagged date                              : UTC 2018-01-25 21:16:10\r\nWriting application                      : HandBrake 1.0.2 2017012200\r\n\r\nVideo\r\nID                                       : 1\r\nFormat                                   : AVC\r\nFormat/Info                              : Advanced Video Codec\r\nFormat profile                           : <a href=\"/cdn-cgi/l/email-protection\" class=\"__cf_email__\" data-cfemail=\"bbf6dad2d5fbf78f\">[email&#xA0;protected]</a>\r\nFormat settings, CABAC                   : Yes\r\nFormat settings, ReFrames                : 4 frames\r\nCodec ID                                 : avc1\r\nCodec ID/Info                            : Advanced Video Coding\r\nDuration                                 : 42mn 37s\r\nBit rate                                 : 1 750 Kbps\r\nWidth                                    : 1 920 pixels\r\nHeight                                   : 1 080 pixels\r\nDisplay aspect ratio                     : 16:9\r\nFrame rate mode                          : Constant\r\nFrame rate                               : 25.000 fps\r\nColor space                              : YUV\r\nChroma subsampling                       : 4:2:0\r\nBit depth                                : 8 bits\r\nScan type                                : Progressive\r\nBits/(Pixel*Frame)                       : 0.034\r\nStream size                              : 534 MiB (91%)\r\nWriting library                          : x264 core 148 r2708 86b7198\r\nEncoded date                             : UTC 2018-01-25 21:16:10\r\nTagged date                              : UTC 2018-01-25 21:16:10\r\nColor range                              : Limited\r\nColor primaries                          : BT.709\r\nTransfer characteristics                 : BT.709\r\nMatrix coefficients                      : BT.709\r\n\r\nAudio\r\nID                                       : 2\r\nFormat                                   : AAC\r\nFormat/Info                              : Advanced Audio Codec\r\nFormat profile                           : LC\r\nCodec ID                                 : 40\r\nDuration                                 : 42mn 37s\r\nBit rate mode                            : Variable\r\nBit rate                                 : 157 Kbps\r\nChannel(s)                               : 2 channels\r\nChannel positions                        : Front: L R\r\nSampling rate                            : 48.0 KHz\r\nCompression mode                         : Lossy\r\nStream size                              : 47.9 MiB (8%)\r\nTitle                                    : Stereo / Stereo\r\nLanguage                                 : Swedish\r\nEncoded date                             : UTC 2018-01-25 21:16:10\r\nTagged date                              : UTC 2018-01-25 21:16:10","last_updated":"2018-01-30T12:01:09.078Z","parsed":{"xt":"urn:btih:360a5fcbd544bc69c0e4429c3f8f3787a6d23020","dn":"Alex (2017) S01 E02 - 1080p x264 - SWE (ENG SUBS) [BRSHNKV]","tr":["udp://exodus.desync.com:6969","udp://open.demonii.com:1337","udp://tracker.coppersurfer.tk:6969","udp://tracker.leechers-paradise.org:6969","udp://zer0day.ch:1337"],"infoHash":"360a5fcbd544bc69c0e4429c3f8f3787a6d23020","infoHashBuffer":{"type":"Buffer","data":[54,10,95,203,213,68,188,105,192,228,66,156,63,143,55,135,166,210,48,32]},"name":"Alex (2017) S01 E02 - 1080p x264 - SWE (ENG SUBS) [BRSHNKV]","announce":["udp://exodus.desync.com:6969","udp://open.demonii.com:1337","udp://tracker.coppersurfer.tk:6969","udp://tracker.leechers-paradise.org:6969","udp://zer0day.ch:1337"],"urlList":[]}}